<?xml version="1.0" encoding="UTF-8" standalone="no"?>
<!-- Created with Inkscape (http://www.inkscape.org/) -->

<svg
   width="838"
   height="260"
   viewBox="0 0 221.72082 68.791668"
   version="1.1"
   id="svg1"
   inkscape:version="1.3 (0e150ed6c4, 2023-07-21)"
   sodipodi:docname="github-header-light.svg"
   inkscape:export-filename="icon-64x64.png"
   inkscape:export-xdpi="384"
   inkscape:export-ydpi="384"
   xml:space="preserve"
   xmlns:inkscape="http://www.inkscape.org/namespaces/inkscape"
   xmlns:sodipodi="http://sodipodi.sourceforge.net/DTD/sodipodi-0.dtd"
   xmlns="http://www.w3.org/2000/svg"
   xmlns:svg="http://www.w3.org/2000/svg"><sodipodi:namedview
     id="namedview1"
     pagecolor="#ffffff"
     bordercolor="#ffffff"
     borderopacity="1"
     inkscape:showpageshadow="0"
     inkscape:pageopacity="0"
     inkscape:pagecheckerboard="false"
     inkscape:deskcolor="#505050"
     inkscape:document-units="px"
     inkscape:zoom="0.70710678"
     inkscape:cx="282.13561"
     inkscape:cy="-0.70710678"
     inkscape:window-width="1920"
     inkscape:window-height="1009"
     inkscape:window-x="-8"
     inkscape:window-y="-8"
     inkscape:window-maximized="1"
     inkscape:current-layer="layer1"
     showgrid="false"><inkscape:grid
       id="grid2"
       units="px"
       originx="0"
       originy="0"
       spacingx="0.26458332"
       spacingy="0.26458333"
       empcolor="#0099e5"
       empopacity="0.30196078"
       color="#0099e5"
       opacity="0.14901961"
       empspacing="5"
       dotted="false"
       gridanglex="30"
       gridanglez="30"
       visible="false" /></sodipodi:namedview><defs
     id="defs1" /><g
     inkscape:label="Layer 1"
     inkscape:groupmode="layer"
     id="layer1"><text
       xml:space="preserve"
       style="font-style:normal;font-variant:normal;font-weight:bold;font-stretch:normal;font-size:2.91042px;line-height:1.5;font-family:'Acmeon Font';-inkscape-font-specification:'Acmeon Font Bold';text-align:center;text-anchor:middle;fill:#000000;stroke-width:0.529167;stroke-linecap:square;stroke-miterlimit:2.8;paint-order:stroke fill markers"
       x="19.215343"
       y="4.2635021"
       id="text3"><tspan
         sodipodi:role="line"
         id="tspan3"
         style="stroke-width:0.529167"
         x="19.215343"
         y="4.2635021" /></text><text
       xml:space="preserve"
       style="font-style:normal;font-variant:normal;font-weight:bold;font-stretch:normal;font-size:3.175px;line-height:1.5;font-family:'Acmeon Text Font';-inkscape-font-specification:'Acmeon Text Font Bold';text-align:start;text-anchor:start;fill:#000000;fill-opacity:1;stroke:none;stroke-width:1.05833;stroke-linecap:square;stroke-dasharray:none;stroke-opacity:1;paint-order:stroke fill markers"
       x="70.292137"
       y="83.546036"
       id="text58"><tspan
         sodipodi:role="line"
         id="tspan58"
         style="fill:#000000;fill-opacity:1;stroke-width:1.05833"
         x="70.292137"
         y="83.546036" /></text><text
       xml:space="preserve"
       style="font-style:normal;font-variant:normal;font-weight:bold;font-stretch:normal;font-size:4.23333px;line-height:1.2;font-family:'Acmeon Text Font';-inkscape-font-specification:'Acmeon Text Font Bold';fill:none;fill-opacity:0.203922;stroke-width:1.05833;stroke-linecap:square;paint-order:stroke fill markers"
       x="-247.01022"
       y="406.36749"
       id="text99"><tspan
         sodipodi:role="line"
         id="tspan99"
         style="stroke-width:1.05833"
         x="-247.01022"
         y="406.36749" /></text><path
       style="font-weight:bold;font-size:5.8187px;line-height:1.5;font-family:'Red Hat Display';-inkscape-font-specification:'Red Hat Display Bold';text-align:center;text-anchor:middle;fill:#000000;stroke-width:0.264583;stroke-linecap:square;paint-order:stroke fill markers;fill-opacity:1"
       d="m 38.488919,64.620687 q -0.642103,0 -1.014295,-0.346621 -0.369351,-0.349463 -0.369351,-0.997248 V 62.98986 h 0.823937 v 0.29264 q 0,0.29264 0.14774,0.448904 0.147741,0.153422 0.403445,0.153422 0.252864,0 0.400604,-0.153422 Q 39.02874,63.57514 39.02874,63.2825 v -2.95765 h 0.875078 v 2.969015 q 0,0.639261 -0.377875,0.983042 -0.377874,0.34378 -1.037024,0.34378 z m 2.932079,-0.01136 q -0.298322,0 -0.531297,-0.09944 -0.232975,-0.09944 -0.36651,-0.298322 -0.133535,-0.201723 -0.133535,-0.500045 0,-0.252863 0.09376,-0.420492 0.09376,-0.170469 0.255704,-0.272751 0.164788,-0.105123 0.375034,-0.159105 0.213087,-0.05398 0.446062,-0.07387 0.275593,-0.02841 0.437539,-0.05398 0.161946,-0.02557 0.232975,-0.07387 0.07103,-0.0483 0.07103,-0.144899 v -0.01989 q 0,-0.110805 -0.05966,-0.193199 -0.05966,-0.08524 -0.17047,-0.133535 -0.107964,-0.0483 -0.261387,-0.0483 -0.153422,0 -0.272751,0.0483 -0.116488,0.0483 -0.184676,0.136376 -0.06819,0.08808 -0.07955,0.204564 h -0.787002 q 0.01989,-0.309687 0.181834,-0.53698 0.164788,-0.227293 0.460269,-0.349463 0.29548,-0.125011 0.707449,-0.125011 0.306845,0 0.548344,0.07103 0.241499,0.06819 0.406286,0.201723 0.167629,0.133534 0.252864,0.323892 0.08524,0.190358 0.08524,0.431857 v 2.034272 h -0.818255 v -0.423333 h -0.01136 q -0.07955,0.14774 -0.19604,0.252863 -0.116488,0.105123 -0.284116,0.164787 -0.167629,0.05682 -0.397763,0.05682 z m 0.232976,-0.582439 q 0.201722,0 0.346621,-0.07387 0.147741,-0.07387 0.227293,-0.201722 0.07955,-0.127853 0.07955,-0.289799 V 63.16033 q -0.03693,0.01989 -0.0966,0.03978 -0.05966,0.01705 -0.139217,0.03409 -0.07955,0.01421 -0.173311,0.03125 -0.09376,0.01705 -0.193199,0.03125 -0.144899,0.02273 -0.261386,0.07103 -0.116488,0.04546 -0.184676,0.125011 -0.06819,0.07671 -0.06819,0.19604 0,0.105123 0.05682,0.181835 0.05682,0.07671 0.161947,0.116487 0.105123,0.03978 0.24434,0.03978 z m 2.787179,0.531298 -1.110894,-3.000267 h 0.877919 l 0.494362,1.483086 q 0.08808,0.264228 0.164788,0.528456 0.07671,0.264228 0.153422,0.531298 h -0.198881 q 0.07387,-0.26707 0.14774,-0.531298 0.07671,-0.264228 0.159105,-0.528456 l 0.48868,-1.483086 h 0.869396 l -1.113736,3.000267 z m 3.190626,0.05114 q -0.298322,0 -0.531298,-0.09944 -0.232975,-0.09944 -0.36651,-0.298322 -0.133534,-0.201723 -0.133534,-0.500045 0,-0.252863 0.09376,-0.420492 0.09376,-0.170469 0.255705,-0.272751 0.164787,-0.105123 0.375033,-0.159105 0.213087,-0.05398 0.446063,-0.07387 0.275592,-0.02841 0.437539,-0.05398 0.161946,-0.02557 0.232975,-0.07387 0.07103,-0.0483 0.07103,-0.144899 v -0.01989 q 0,-0.110805 -0.05966,-0.193199 -0.05966,-0.08524 -0.170469,-0.133535 -0.107964,-0.0483 -0.261387,-0.0483 -0.153423,0 -0.272752,0.0483 -0.116487,0.0483 -0.184675,0.136376 -0.06819,0.08808 -0.07955,0.204564 h -0.787002 q 0.01989,-0.309687 0.181835,-0.53698 0.164787,-0.227293 0.460268,-0.349463 0.295481,-0.125011 0.707449,-0.125011 0.306846,0 0.548345,0.07103 0.241498,0.06819 0.406286,0.201723 0.167628,0.133534 0.252863,0.323892 0.08524,0.190358 0.08524,0.431857 v 2.034272 h -0.818255 v -0.423333 h -0.01136 q -0.07955,0.14774 -0.19604,0.252863 -0.116488,0.105123 -0.284117,0.164787 -0.167628,0.05682 -0.397762,0.05682 z m 0.232975,-0.582439 q 0.201722,0 0.346622,-0.07387 0.14774,-0.07387 0.227293,-0.201722 0.07955,-0.127853 0.07955,-0.289799 V 63.16033 q -0.03693,0.01989 -0.0966,0.03978 -0.05967,0.01705 -0.139217,0.03409 -0.07955,0.01421 -0.173311,0.03125 -0.09376,0.01705 -0.193199,0.03125 -0.144899,0.02273 -0.261387,0.07103 -0.116488,0.04546 -0.184676,0.125011 -0.06819,0.07671 -0.06819,0.19604 0,0.105123 0.05682,0.181835 0.05682,0.07671 0.161946,0.116487 0.105123,0.03978 0.24434,0.03978 z m 3.687828,0.599486 q -0.542662,0 -0.926219,-0.17047 -0.383557,-0.173311 -0.58812,-0.500045 -0.204564,-0.326733 -0.204564,-0.787001 h 0.843825 q 0.0057,0.232975 0.110805,0.397762 0.107964,0.164788 0.304005,0.252864 0.19604,0.08808 0.46595,0.08808 0.24434,0 0.423333,-0.06535 0.181835,-0.06819 0.281275,-0.190358 0.102282,-0.12217 0.102282,-0.286957 0,-0.136376 -0.07955,-0.235817 -0.07671,-0.102282 -0.24434,-0.178993 -0.164788,-0.07671 -0.434698,-0.133535 l -0.446062,-0.0966 q -0.630738,-0.136376 -0.937584,-0.429016 -0.306845,-0.292639 -0.306845,-0.747225 0,-0.386398 0.201722,-0.673356 0.201723,-0.289798 0.56255,-0.451744 0.363669,-0.161947 0.843825,-0.161947 0.485839,0 0.840984,0.164788 0.355146,0.164787 0.551186,0.471633 0.198881,0.304004 0.213087,0.730178 h -0.818255 q -0.02273,-0.301163 -0.232975,-0.474474 -0.210246,-0.173311 -0.551186,-0.173311 -0.213087,0 -0.380715,0.06819 -0.164788,0.06535 -0.261387,0.184676 -0.09376,0.116488 -0.09376,0.272751 0,0.130694 0.07387,0.227293 0.07387,0.09376 0.235816,0.164788 0.161946,0.07103 0.420492,0.127852 l 0.406286,0.08808 q 0.338099,0.07387 0.58528,0.181834 0.247181,0.105123 0.406286,0.252864 0.159105,0.144899 0.235816,0.335257 0.07671,0.190358 0.07671,0.429015 0,0.406287 -0.204564,0.704609 -0.201723,0.295481 -0.579597,0.454586 -0.375033,0.159105 -0.894966,0.159105 z m 3.548612,0 q -0.451744,0 -0.789843,-0.196041 -0.338098,-0.198881 -0.528456,-0.551185 -0.187517,-0.355145 -0.187517,-0.818255 0,-0.46595 0.187517,-0.818254 0.190358,-0.355146 0.528456,-0.554027 0.338099,-0.198881 0.789843,-0.198881 0.295481,0 0.545503,0.08808 0.250023,0.08523 0.434698,0.24434 0.187517,0.159105 0.298322,0.377874 0.110806,0.215929 0.130694,0.480157 H 55.70068 q -0.01705,-0.116488 -0.06535,-0.210246 -0.04546,-0.09376 -0.119329,-0.161947 -0.07387,-0.06819 -0.176152,-0.105123 -0.09944,-0.03693 -0.227293,-0.03693 -0.210246,0 -0.360828,0.110806 -0.150581,0.107964 -0.232975,0.309686 -0.07955,0.198882 -0.07955,0.474474 0,0.272752 0.07955,0.471633 0.08239,0.198882 0.232975,0.309687 0.150582,0.107964 0.360828,0.107964 0.127852,0 0.227293,-0.03693 0.09944,-0.03693 0.17047,-0.105123 0.07387,-0.06819 0.119328,-0.161946 0.04546,-0.0966 0.06535,-0.215929 h 0.815414 q -0.01421,0.261387 -0.125011,0.480157 -0.107965,0.215928 -0.295481,0.377874 -0.187517,0.161947 -0.44038,0.250023 -0.250023,0.08808 -0.548345,0.08808 z m 1.855278,-0.06819 v -3.000267 h 0.80689 v 0.511409 h 0.0085 q 0.08239,-0.269911 0.258545,-0.400604 0.176152,-0.130693 0.474474,-0.130693 0.07387,0 0.133535,0.0028 0.0625,0 0.113646,0.0028 v 0.713132 q -0.04546,-0.0028 -0.150581,-0.0085 -0.102282,-0.0057 -0.210246,-0.0057 -0.17047,0 -0.306846,0.07955 -0.136375,0.07671 -0.213087,0.230134 -0.07671,0.153423 -0.07671,0.380716 v 1.625145 z m 2.2019,0 v -3.000267 h 0.838143 v 3.000267 z m -0.0085,-3.463377 V 60.32485 h 0.852349 v 0.769955 z m 1.437627,4.650982 v -4.187872 h 0.826778 v 0.406286 h 0.0085 q 0.09376,-0.156264 0.224452,-0.258546 0.133534,-0.105123 0.301163,-0.156264 0.17047,-0.05398 0.363669,-0.05398 0.383557,0 0.673355,0.198881 0.29264,0.196041 0.454586,0.548345 0.164787,0.349463 0.164787,0.812572 0,0.468792 -0.161946,0.821096 -0.161946,0.352304 -0.451745,0.548344 -0.289798,0.19604 -0.68472,0.19604 -0.19604,0 -0.363668,-0.05682 -0.164788,-0.05682 -0.295481,-0.17047 -0.127853,-0.113646 -0.213087,-0.284116 h -0.0085 v 1.636509 z m 1.502975,-1.806979 q 0.204564,0 0.352304,-0.102281 0.150582,-0.105123 0.232975,-0.301164 0.08523,-0.198881 0.08523,-0.480156 0,-0.281275 -0.08523,-0.477315 -0.08239,-0.198882 -0.232975,-0.301163 -0.14774,-0.105123 -0.352304,-0.105123 -0.210246,0 -0.372192,0.110805 -0.159105,0.107964 -0.247181,0.306845 -0.08523,0.196041 -0.08523,0.465951 0,0.267069 0.08523,0.465951 0.08808,0.198881 0.247181,0.309686 0.161946,0.107964 0.372192,0.107964 z m 3.699194,-2.380893 v 0.656308 H 63.820719 V 61.557915 Z M 64.337811,60.73966 h 0.835301 v 2.892303 q 0,0.150582 0.06251,0.210246 0.06251,0.05966 0.232975,0.05966 0.07103,0 0.167629,0 0.09944,0 0.153423,0 v 0.656309 q -0.07671,0 -0.213088,0 -0.136375,0 -0.275592,0 -0.494362,0 -0.730179,-0.193199 -0.232975,-0.193199 -0.232975,-0.602327 z m 3.750333,2.136554 q 0,-0.497204 0.08239,-1.011454 0.08524,-0.517091 0.232975,-0.974518 0.150582,-0.457428 0.346622,-0.78132 h 0.804049 q -0.181835,0.400604 -0.323893,0.869396 -0.139217,0.46595 -0.218769,0.951789 -0.07955,0.485839 -0.07955,0.946107 0,0.409127 0.07103,0.80689 0.07103,0.394921 0.207405,0.815413 0.139217,0.417651 0.343781,0.894966 h -0.804049 q -0.323892,-0.551185 -0.494362,-1.193288 -0.167629,-0.642102 -0.167629,-1.323981 z m 2.875257,1.733109 q -0.298322,0 -0.531298,-0.09944 -0.232975,-0.09944 -0.366509,-0.298322 -0.133535,-0.201723 -0.133535,-0.500045 0,-0.252863 0.09376,-0.420492 0.09376,-0.170469 0.255705,-0.272751 0.164787,-0.105123 0.375033,-0.159105 0.213087,-0.05398 0.446063,-0.07387 0.275592,-0.02841 0.437539,-0.05398 0.161946,-0.02557 0.232975,-0.07387 0.07103,-0.0483 0.07103,-0.144899 v -0.01989 q 0,-0.110805 -0.05966,-0.193199 -0.05966,-0.08524 -0.17047,-0.133535 -0.107964,-0.0483 -0.261387,-0.0483 -0.153423,0 -0.272752,0.0483 -0.116487,0.0483 -0.184675,0.136376 -0.06819,0.08808 -0.07955,0.204564 h -0.787002 q 0.01989,-0.309687 0.181835,-0.53698 0.164787,-0.227293 0.460268,-0.349463 0.295481,-0.125011 0.707449,-0.125011 0.306846,0 0.548345,0.07103 0.241498,0.06819 0.406286,0.201723 0.167628,0.133534 0.252863,0.323892 0.08523,0.190358 0.08523,0.431857 v 2.034272 h -0.818255 v -0.423333 h -0.01136 q -0.07955,0.14774 -0.19604,0.252863 -0.116488,0.105123 -0.284117,0.164787 -0.167628,0.05682 -0.397762,0.05682 z m 0.232975,-0.582439 q 0.201723,0 0.346622,-0.07387 0.14774,-0.07387 0.227293,-0.201722 0.07955,-0.127853 0.07955,-0.289799 V 63.16033 q -0.03694,0.01989 -0.0966,0.03978 -0.05966,0.01705 -0.139217,0.03409 -0.07955,0.01421 -0.173311,0.03125 -0.09376,0.01705 -0.193199,0.03125 -0.144899,0.02273 -0.261387,0.07103 -0.116488,0.04546 -0.184675,0.125011 -0.06819,0.07671 -0.06819,0.19604 0,0.105123 0.05682,0.181835 0.05682,0.07671 0.161946,0.116487 0.105123,0.03978 0.24434,0.03978 z m 2.903666,-1.136464 v 1.667762 H 73.2619 v -3.000267 h 0.823937 v 0.781319 h -0.142059 q 0.142059,-0.397762 0.406287,-0.619373 0.264228,-0.224452 0.673355,-0.224452 0.321051,0 0.556868,0.139217 0.235816,0.136376 0.363669,0.400604 0.130693,0.264228 0.130693,0.644944 v 1.878008 h -0.835302 v -1.724586 q 0,-0.304004 -0.144899,-0.460268 -0.142058,-0.156264 -0.406286,-0.156264 -0.173311,0 -0.306846,0.07103 -0.133534,0.07103 -0.207404,0.221611 -0.07387,0.14774 -0.07387,0.380716 z m 3.73613,1.730267 q -0.39208,0 -0.68472,-0.19604 -0.292639,-0.19604 -0.454586,-0.548344 -0.159105,-0.352304 -0.159105,-0.821096 0,-0.463109 0.161947,-0.812572 0.164787,-0.352304 0.454585,-0.548345 0.29264,-0.198881 0.676197,-0.198881 0.19604,0 0.360828,0.05398 0.164787,0.05114 0.29548,0.156264 0.130694,0.105123 0.227293,0.267069 h 0.0028 V 60.32485 h 0.835301 v 4.233332 h -0.823937 v -0.460268 h -0.0028 q -0.08808,0.17331 -0.221611,0.292639 -0.130693,0.116488 -0.301163,0.173311 -0.170469,0.05682 -0.36651,0.05682 z m 0.215929,-0.681879 q 0.213087,0 0.369351,-0.107964 0.159105,-0.110805 0.247181,-0.309686 0.08808,-0.198882 0.08808,-0.465951 0,-0.26991 -0.08808,-0.465951 -0.08808,-0.198881 -0.247181,-0.306845 -0.156264,-0.110805 -0.369351,-0.110805 -0.201723,0 -0.352304,0.105123 -0.150582,0.102281 -0.235817,0.301163 -0.08239,0.19604 -0.08239,0.477315 0,0.281275 0.08239,0.480156 0.08523,0.196041 0.235817,0.301164 0.150581,0.102281 0.352304,0.102281 z m 3.488947,-2.863891 V 60.32485 h 3.440648 v 0.750067 h -1.281365 v 3.483265 h -0.875077 v -3.483265 z m 3.440645,4.67087 v -0.66199 h 0.380716 q 0.102282,0 0.164787,-0.03125 0.06251,-0.03125 0.105123,-0.102282 0.04546,-0.06819 0.08524,-0.181834 l 0.08239,-0.221611 -1.153512,-2.988902 h 0.877919 l 0.502886,1.483086 q 0.08523,0.261387 0.164787,0.528456 0.07955,0.264228 0.153423,0.531298 h -0.232975 q 0.07103,-0.26707 0.150581,-0.531298 0.07955,-0.267069 0.164788,-0.528456 l 0.505727,-1.483086 h 0.869395 l -1.32114,3.463376 q -0.0966,0.250022 -0.227293,0.409128 -0.130693,0.161946 -0.309687,0.238657 -0.176152,0.07671 -0.409127,0.07671 -0.136376,0 -0.278434,0 -0.139217,0 -0.275593,0 z m 3.148008,0 v -4.187872 h 0.826778 v 0.406286 h 0.0085 q 0.09376,-0.156264 0.224452,-0.258546 0.133534,-0.105123 0.301163,-0.156264 0.17047,-0.05398 0.363669,-0.05398 0.383556,0 0.673355,0.198881 0.29264,0.196041 0.454586,0.548345 0.164787,0.349463 0.164787,0.812572 0,0.468792 -0.161946,0.821096 -0.161946,0.352304 -0.451745,0.548344 -0.289798,0.19604 -0.68472,0.19604 -0.19604,0 -0.363668,-0.05682 -0.164788,-0.05682 -0.295481,-0.17047 -0.127853,-0.113646 -0.213087,-0.284116 h -0.0085 v 1.636509 z m 1.502975,-1.806979 q 0.204564,0 0.352304,-0.102281 0.150582,-0.105123 0.232975,-0.301164 0.08523,-0.198881 0.08523,-0.480156 0,-0.281275 -0.08523,-0.477315 -0.08239,-0.198882 -0.232975,-0.301163 -0.14774,-0.105123 -0.352304,-0.105123 -0.210246,0 -0.372192,0.110805 -0.159105,0.107964 -0.247181,0.306845 -0.08523,0.196041 -0.08523,0.465951 0,0.267069 0.08523,0.465951 0.08808,0.198881 0.247181,0.309686 0.161946,0.107964 0.372192,0.107964 z m 3.344046,0.687562 q -0.454586,0 -0.792684,-0.198882 -0.335257,-0.201722 -0.522774,-0.556867 -0.184675,-0.355146 -0.184675,-0.809732 0,-0.460268 0.187516,-0.812572 0.190358,-0.355145 0.522774,-0.556868 0.332416,-0.201722 0.761432,-0.201722 0.332416,0 0.602326,0.113646 0.26991,0.110806 0.465951,0.321052 0.19604,0.207404 0.301163,0.491521 0.107964,0.284116 0.107964,0.627896 v 0.224452 h -2.650804 v -0.534138 h 2.247359 l -0.377875,0.127852 q 0,-0.227293 -0.08239,-0.39208 -0.08239,-0.164788 -0.235817,-0.252864 -0.150581,-0.09092 -0.360827,-0.09092 -0.207405,0 -0.357987,0.09092 -0.150581,0.08808 -0.232975,0.252864 -0.08239,0.164787 -0.08239,0.39208 v 0.363669 q 0,0.232975 0.08239,0.409127 0.08523,0.173311 0.24434,0.26991 0.159105,0.09376 0.383557,0.09376 0.164787,0 0.289798,-0.04546 0.127853,-0.0483 0.213087,-0.133534 0.08808,-0.08808 0.125012,-0.204564 h 0.764272 q -0.05398,0.298322 -0.252863,0.525615 -0.198882,0.227293 -0.500045,0.357986 -0.301163,0.127853 -0.664832,0.127853 z m 3.520202,0 q -0.542662,0 -0.926219,-0.17047 -0.383557,-0.173311 -0.588121,-0.500045 -0.204563,-0.326733 -0.204563,-0.787001 h 0.843825 q 0.0057,0.232975 0.110805,0.397762 0.107964,0.164788 0.304004,0.252864 0.19604,0.08808 0.465951,0.08808 0.24434,0 0.423333,-0.06535 0.181834,-0.06819 0.281275,-0.190358 0.102282,-0.12217 0.102282,-0.286957 0,-0.136376 -0.07955,-0.235817 -0.07671,-0.102282 -0.24434,-0.178993 -0.164787,-0.07671 -0.434697,-0.133535 l -0.446063,-0.0966 q -0.630738,-0.136376 -0.937583,-0.429016 -0.306846,-0.292639 -0.306846,-0.747225 0,-0.386398 0.201723,-0.673356 0.201722,-0.289798 0.56255,-0.451744 0.363669,-0.161947 0.843825,-0.161947 0.485839,0 0.840984,0.164788 0.355145,0.164787 0.551185,0.471633 0.198882,0.304004 0.213087,0.730178 h -0.818254 q -0.02273,-0.301163 -0.232975,-0.474474 -0.210246,-0.173311 -0.551186,-0.173311 -0.213087,0 -0.380716,0.06819 -0.164787,0.06535 -0.261387,0.184676 -0.09376,0.116488 -0.09376,0.272751 0,0.130694 0.07387,0.227293 0.07387,0.09376 0.235817,0.164788 0.161946,0.07103 0.420492,0.127852 l 0.406286,0.08808 q 0.338098,0.07387 0.585279,0.181834 0.247181,0.105123 0.406287,0.252864 0.159105,0.144899 0.235816,0.335257 0.07671,0.190358 0.07671,0.429015 0,0.406287 -0.204563,0.704609 -0.201723,0.295481 -0.579597,0.454586 -0.375034,0.159105 -0.894966,0.159105 z m 3.548606,0 q -0.451741,0 -0.789839,-0.196041 -0.338098,-0.198881 -0.528456,-0.551185 -0.187517,-0.355145 -0.187517,-0.818255 0,-0.46595 0.187517,-0.818254 0.190358,-0.355146 0.528456,-0.554027 0.338098,-0.198881 0.789839,-0.198881 0.29548,0 0.54551,0.08808 0.25002,0.08523 0.43469,0.24434 0.18752,0.159105 0.29833,0.377874 0.1108,0.215929 0.13069,0.480157 h -0.80973 q -0.017,-0.116488 -0.0654,-0.210246 -0.0455,-0.09376 -0.11933,-0.161947 -0.0739,-0.06819 -0.17615,-0.105123 -0.0994,-0.03693 -0.22729,-0.03693 -0.210247,0 -0.360829,0.110806 -0.150581,0.107964 -0.232975,0.309686 -0.07955,0.198882 -0.07955,0.474474 0,0.272752 0.07955,0.471633 0.08239,0.198882 0.232975,0.309687 0.150582,0.107964 0.360829,0.107964 0.12785,0 0.22729,-0.03693 0.0994,-0.03693 0.17047,-0.105123 0.0739,-0.06819 0.11933,-0.161946 0.0455,-0.0966 0.0654,-0.215929 h 0.81541 q -0.0142,0.261387 -0.12501,0.480157 -0.10796,0.215928 -0.29548,0.377874 -0.18752,0.161947 -0.44038,0.250023 -0.25002,0.08808 -0.54835,0.08808 z m 1.85528,-0.06819 v -3.000267 h 0.80689 v 0.511409 h 0.009 q 0.0824,-0.269911 0.25854,-0.400604 0.17615,-0.130693 0.47448,-0.130693 0.0739,0 0.13353,0.0028 0.0625,0 0.11365,0.0028 v 0.713132 q -0.0455,-0.0028 -0.15059,-0.0085 -0.10228,-0.0057 -0.21024,-0.0057 -0.17047,0 -0.30685,0.07955 -0.13637,0.07671 -0.21308,0.230134 -0.0767,0.153423 -0.0767,0.380716 v 1.625145 z m 2.20191,0 v -3.000267 h 0.83814 v 3.000267 z m -0.009,-3.463377 V 60.32485 h 0.85235 v 0.769955 z m 1.43763,4.650982 v -4.187872 h 0.82677 v 0.406286 h 0.009 q 0.0938,-0.156264 0.22445,-0.258546 0.13353,-0.105123 0.30116,-0.156264 0.17047,-0.05398 0.36367,-0.05398 0.38356,0 0.67336,0.198881 0.29264,0.196041 0.45458,0.548345 0.16479,0.349463 0.16479,0.812572 0,0.468792 -0.16195,0.821096 -0.16194,0.352304 -0.45174,0.548344 -0.2898,0.19604 -0.68472,0.19604 -0.19604,0 -0.36367,-0.05682 -0.16479,-0.05682 -0.29548,-0.17047 -0.12785,-0.113646 -0.21309,-0.284116 h -0.009 v 1.636509 z m 1.50297,-1.806979 q 0.20456,0 0.3523,-0.102281 0.15059,-0.105123 0.23298,-0.301164 0.0852,-0.198881 0.0852,-0.480156 0,-0.281275 -0.0852,-0.477315 -0.0824,-0.198882 -0.23298,-0.301163 -0.14774,-0.105123 -0.3523,-0.105123 -0.21025,0 -0.37219,0.110805 -0.15911,0.107964 -0.24718,0.306845 -0.0852,0.196041 -0.0852,0.465951 0,0.267069 0.0852,0.465951 0.0881,0.198881 0.24718,0.309686 0.16194,0.107964 0.37219,0.107964 z m 3.6992,-2.380893 v 0.656308 h -1.96893 v -0.656308 z m -1.45184,-0.818255 h 0.8353 v 2.892303 q 0,0.150582 0.0625,0.210246 0.0625,0.05966 0.23297,0.05966 0.071,0 0.16763,0 0.0994,0 0.15343,0 v 0.656309 q -0.0767,0 -0.21309,0 -0.13638,0 -0.27559,0 -0.49437,0 -0.73018,-0.193199 -0.23298,-0.193199 -0.23298,-0.602327 z m 1.77289,4.653823 q 0.20456,-0.477315 0.34094,-0.894966 0.13922,-0.420492 0.21025,-0.815413 0.071,-0.397763 0.071,-0.80689 0,-0.460268 -0.0796,-0.946107 -0.0795,-0.485839 -0.22161,-0.951789 -0.13921,-0.468792 -0.32105,-0.869396 h 0.80405 q 0.19604,0.323892 0.34378,0.78132 0.15058,0.457427 0.23298,0.974518 0.0852,0.51425 0.0852,1.011454 0,0.681879 -0.17047,1.323981 -0.16763,0.642103 -0.49152,1.193288 z m 5.68232,-3.835568 v 0.656308 h -1.99165 v -0.656308 z m -1.44899,3.000267 v -3.389507 q 0,-0.281275 0.10796,-0.468791 0.11081,-0.187517 0.32673,-0.281275 0.21593,-0.09376 0.53983,-0.09376 0.15058,0 0.28695,0 0.13638,0 0.18752,0 v 0.656309 q -0.0341,0 -0.12785,0 -0.0938,0 -0.15911,0 -0.17615,0 -0.25286,0.07671 -0.0739,0.07387 -0.0739,0.252864 v 3.247448 z m 3.19346,0.06819 q -0.45174,0 -0.79552,-0.196041 -0.34378,-0.19604 -0.53698,-0.548344 -0.19036,-0.352304 -0.19036,-0.821096 0,-0.471633 0.19036,-0.823937 0.1932,-0.352304 0.53698,-0.548344 0.34378,-0.198881 0.79552,-0.198881 0.45743,0 0.79837,0.198881 0.34378,0.19604 0.53414,0.548344 0.1932,0.352304 0.1932,0.823937 0,0.468792 -0.1932,0.821096 -0.19036,0.352304 -0.53414,0.548344 -0.34094,0.196041 -0.79837,0.196041 z m 0,-0.679038 q 0.20457,0 0.35799,-0.105123 0.15342,-0.107964 0.23866,-0.306846 0.0852,-0.198881 0.0852,-0.474474 0,-0.281275 -0.0852,-0.480156 -0.0852,-0.198881 -0.23866,-0.304004 -0.15342,-0.107965 -0.35799,-0.107965 -0.20172,0 -0.35514,0.107965 -0.15343,0.105123 -0.23866,0.304004 -0.0852,0.198881 -0.0852,0.480156 0,0.278434 0.0852,0.477316 0.0852,0.19604 0.23866,0.304004 0.15342,0.105123 0.35514,0.105123 z m 1.98598,0.61085 v -3.000267 h 0.80689 v 0.511409 h 0.009 q 0.0824,-0.269911 0.25854,-0.400604 0.17616,-0.130693 0.47448,-0.130693 0.0739,0 0.13353,0.0028 0.0625,0 0.11365,0.0028 v 0.713132 q -0.0455,-0.0028 -0.15058,-0.0085 -0.10228,-0.0057 -0.21025,-0.0057 -0.17047,0 -0.30684,0.07955 -0.13638,0.07671 -0.21309,0.230134 -0.0767,0.153423 -0.0767,0.380716 v 1.625145 z m 3.75318,0 V 60.32485 h 3.0372 v 0.750067 h -2.16213 v 0.980201 h 2.00018 v 0.730179 h -2.00018 v 1.022818 h 2.16213 v 0.750067 z m 3.25597,0 1.21033,-1.724586 -0.017,0.372193 -1.11941,-1.647874 h 0.91485 l 0.26423,0.420492 q 0.11365,0.190357 0.21593,0.369351 0.10228,0.178993 0.20456,0.357986 h -0.26707 q 0.10797,-0.178993 0.21025,-0.357986 0.10228,-0.178994 0.22161,-0.369351 l 0.26991,-0.420492 h 0.90065 l -1.14783,1.647874 0.017,-0.372193 1.17909,1.724586 h -0.9177 l -0.30116,-0.460268 q -0.11081,-0.187517 -0.21309,-0.357987 -0.10228,-0.173311 -0.2074,-0.346622 h 0.23297 q -0.10796,0.173311 -0.21024,0.346622 -0.10229,0.17047 -0.21877,0.357987 l -0.30685,0.460268 z m 4.59131,0.06819 q -0.45175,0 -0.78984,-0.196041 -0.3381,-0.198881 -0.52846,-0.551185 -0.18752,-0.355145 -0.18752,-0.818255 0,-0.46595 0.18752,-0.818254 0.19036,-0.355146 0.52846,-0.554027 0.33809,-0.198881 0.78984,-0.198881 0.29548,0 0.5455,0.08808 0.25003,0.08523 0.4347,0.24434 0.18752,0.159105 0.29832,0.377874 0.11081,0.215929 0.1307,0.480157 h -0.80974 q -0.017,-0.116488 -0.0653,-0.210246 -0.0455,-0.09376 -0.11933,-0.161947 -0.0739,-0.06819 -0.17615,-0.105123 -0.0994,-0.03693 -0.2273,-0.03693 -0.21024,0 -0.36082,0.110806 -0.15058,0.107964 -0.23298,0.309686 -0.0795,0.198882 -0.0795,0.474474 0,0.272752 0.0795,0.471633 0.0824,0.198882 0.23298,0.309687 0.15058,0.107964 0.36082,0.107964 0.12786,0 0.2273,-0.03693 0.0994,-0.03693 0.17047,-0.105123 0.0739,-0.06819 0.11933,-0.161946 0.0454,-0.0966 0.0653,-0.215929 h 0.81542 q -0.0142,0.261387 -0.12502,0.480157 -0.10796,0.215928 -0.29548,0.377874 -0.18751,0.161947 -0.44038,0.250023 -0.25002,0.08808 -0.54834,0.08808 z m 3.22472,0 q -0.45459,0 -0.79269,-0.198882 -0.33525,-0.201722 -0.52277,-0.556867 -0.18468,-0.355146 -0.18468,-0.809732 0,-0.460268 0.18752,-0.812572 0.19036,-0.355145 0.52277,-0.556868 0.33242,-0.201722 0.76144,-0.201722 0.33241,0 0.60232,0.113646 0.26991,0.110806 0.46595,0.321052 0.19604,0.207404 0.30117,0.491521 0.10796,0.284116 0.10796,0.627896 v 0.224452 h -2.6508 v -0.534138 h 2.24736 l -0.37788,0.127852 q 0,-0.227293 -0.0824,-0.39208 -0.0824,-0.164788 -0.23582,-0.252864 -0.15058,-0.09092 -0.36083,-0.09092 -0.2074,0 -0.35798,0.09092 -0.15059,0.08808 -0.23298,0.252864 -0.0824,0.164787 -0.0824,0.39208 v 0.363669 q 0,0.232975 0.0824,0.409127 0.0852,0.173311 0.24434,0.26991 0.15911,0.09376 0.38356,0.09376 0.16479,0 0.2898,-0.04546 0.12785,-0.0483 0.21308,-0.133534 0.0881,-0.08808 0.12501,-0.204564 h 0.76428 q -0.054,0.298322 -0.25287,0.525615 -0.19888,0.227293 -0.50004,0.357986 -0.30116,0.127853 -0.66483,0.127853 z m 2.86958,-0.06819 q -0.51425,0 -0.74439,-0.187517 -0.22729,-0.190358 -0.22729,-0.625056 V 60.32485 h 0.83814 v 3.341207 q 0,0.139217 0.0568,0.19604 0.0568,0.05398 0.19604,0.05398 0.0284,0 0.0625,0 0.0341,0 0.0597,0 v 0.642103 q -0.0597,0 -0.12217,0 -0.0597,0 -0.11933,0 z"
       id="path1" /><path
       style="font-weight:bold;font-size:5.8187px;line-height:1.5;font-family:'Red Hat Display';-inkscape-font-specification:'Red Hat Display Bold';text-align:center;text-anchor:middle;fill:#00bc65;stroke-width:0.264583;stroke-linecap:square;paint-order:stroke fill markers"
       d="M 140.17411,61.074917 V 60.32485 h 3.44065 v 0.750067 h -1.28137 v 3.483265 h -0.87508 v -3.483265 z m 4.70212,1.815503 v 1.667762 h -0.83814 V 60.32485 h 0.83814 v 2.014384 h -0.15626 q 0.14205,-0.397762 0.40628,-0.619373 0.26423,-0.224452 0.67336,-0.224452 0.32105,0 0.55687,0.139217 0.23581,0.136376 0.36366,0.400604 0.1307,0.264228 0.1307,0.644944 v 1.878008 h -0.8353 v -1.724586 q 0,-0.304004 -0.1449,-0.460268 -0.14206,-0.156264 -0.40629,-0.156264 -0.17331,0 -0.30684,0.07103 -0.13354,0.07103 -0.20741,0.221611 -0.0739,0.14774 -0.0739,0.380716 z m 3.48611,1.718903 q -0.29832,0 -0.5313,-0.09944 -0.23297,-0.09944 -0.36651,-0.298322 -0.13353,-0.201723 -0.13353,-0.500045 0,-0.252863 0.0937,-0.420492 0.0938,-0.170469 0.25571,-0.272751 0.16479,-0.105123 0.37503,-0.159105 0.21309,-0.05398 0.44606,-0.07387 0.2756,-0.02841 0.43754,-0.05398 0.16195,-0.02557 0.23298,-0.07387 0.071,-0.0483 0.071,-0.144899 v -0.01989 q 0,-0.110805 -0.0597,-0.193199 -0.0597,-0.08524 -0.17047,-0.133535 -0.10796,-0.0483 -0.26138,-0.0483 -0.15343,0 -0.27275,0.0483 -0.11649,0.0483 -0.18468,0.136376 -0.0682,0.08808 -0.0796,0.204564 h -0.787 q 0.0199,-0.309687 0.18183,-0.53698 0.16479,-0.227293 0.46027,-0.349463 0.29548,-0.125011 0.70745,-0.125011 0.30684,0 0.54834,0.07103 0.2415,0.06819 0.40629,0.201723 0.16763,0.133534 0.25286,0.323892 0.0852,0.190358 0.0852,0.431857 v 2.034272 h -0.81826 v -0.423333 h -0.0114 q -0.0796,0.14774 -0.19604,0.252863 -0.11649,0.105123 -0.28412,0.164787 -0.16763,0.05682 -0.39776,0.05682 z m 0.23297,-0.582439 q 0.20173,0 0.34663,-0.07387 0.14774,-0.07387 0.22729,-0.201722 0.0796,-0.127853 0.0796,-0.289799 V 63.16033 q -0.0369,0.01989 -0.0966,0.03978 -0.0597,0.01705 -0.13922,0.03409 -0.0795,0.01421 -0.17331,0.03125 -0.0938,0.01705 -0.1932,0.03125 -0.1449,0.02273 -0.26138,0.07103 -0.11649,0.04546 -0.18468,0.125011 -0.0682,0.07671 -0.0682,0.19604 0,0.105123 0.0568,0.181835 0.0568,0.07671 0.16194,0.116487 0.10513,0.03978 0.24434,0.03978 z m 3.79011,-2.468969 v 0.656308 h -1.96892 v -0.656308 z m -1.45183,-0.818255 h 0.8353 v 2.892303 q 0,0.150582 0.0625,0.210246 0.0625,0.05966 0.23297,0.05966 0.071,0 0.16763,0 0.0994,0 0.15342,0 v 0.656309 q -0.0767,0 -0.21309,0 -0.13637,0 -0.27559,0 -0.49436,0 -0.73018,-0.193199 -0.23297,-0.193199 -0.23297,-0.602327 z m 4.69076,3.881027 q -0.6421,0 -1.0143,-0.346621 -0.36935,-0.349463 -0.36935,-0.997248 V 62.98986 h 0.82394 v 0.29264 q 0,0.29264 0.14774,0.448904 0.14774,0.153422 0.40344,0.153422 0.25287,0 0.40061,-0.153422 0.14774,-0.156264 0.14774,-0.448904 v -2.95765 h 0.87508 v 2.969015 q 0,0.639261 -0.37788,0.983042 -0.37787,0.34378 -1.03702,0.34378 z m 3.06845,0 q -0.31821,0 -0.55687,-0.136375 -0.23582,-0.139217 -0.36651,-0.403445 -0.13069,-0.26707 -0.13069,-0.644944 v -1.878008 h 0.83814 V 63.2825 q 0,0.301163 0.1449,0.460268 0.1449,0.156264 0.40629,0.156264 0.17331,0 0.304,-0.07103 0.13353,-0.07103 0.2074,-0.221611 0.0767,-0.150581 0.0767,-0.380715 v -1.667762 h 0.8353 v 3.000267 h -0.8211 v -0.78132 h 0.14206 q -0.14206,0.397763 -0.40629,0.622215 -0.26138,0.22161 -0.67335,0.22161 z m 3.59975,0.01136 q -0.38924,0 -0.69324,-0.119329 -0.30401,-0.12217 -0.48584,-0.349463 -0.18183,-0.227293 -0.21025,-0.548344 h 0.82394 q 0.0227,0.19604 0.16479,0.306845 0.14206,0.110806 0.3864,0.110806 0.23297,0 0.36651,-0.08808 0.13353,-0.08808 0.13353,-0.227293 0,-0.119329 -0.10228,-0.193199 -0.10228,-0.07387 -0.28696,-0.107964 l -0.52561,-0.102282 q -0.43754,-0.08523 -0.66484,-0.306846 -0.22729,-0.22161 -0.22729,-0.568232 0,-0.284116 0.15342,-0.497203 0.15627,-0.213088 0.44038,-0.329575 0.28696,-0.116488 0.67904,-0.116488 0.38924,0 0.67904,0.125011 0.2898,0.12217 0.45174,0.349463 0.16479,0.224452 0.17332,0.539821 h -0.77564 q -0.003,-0.181834 -0.14206,-0.301163 -0.13922,-0.119329 -0.36367,-0.119329 -0.21593,0 -0.3381,0.09376 -0.12217,0.09092 -0.12217,0.224452 0,0.116488 0.0966,0.190358 0.0966,0.07387 0.26707,0.110805 l 0.56823,0.110806 q 0.45459,0.08808 0.66768,0.289798 0.21593,0.198881 0.21593,0.531297 0,0.298322 -0.17047,0.522774 -0.16763,0.221611 -0.4688,0.346622 -0.29832,0.12217 -0.6904,0.12217 z m 3.55998,-3.074137 v 0.656308 h -1.96892 v -0.656303 z m -1.45183,-0.81825 h 0.8353 v 2.892303 q 0,0.150582 0.0625,0.210246 0.0625,0.05966 0.23297,0.05966 0.071,0 0.16763,0 0.0994,0 0.15342,0 v 0.656309 q -0.0767,0 -0.21309,0 -0.13637,0 -0.27559,0 -0.49436,0 -0.73018,-0.193199 -0.23297,-0.193199 -0.23297,-0.602327 z m 4.30152,3.818522 -1.13647,-4.233332 h 0.93191 l 0.4972,2.10246 q 0.0597,0.261387 0.11364,0.522774 0.054,0.261387 0.10229,0.522774 0.0511,0.261387 0.0966,0.525615 h -0.17331 q 0.0511,-0.264228 0.10512,-0.525615 0.054,-0.261387 0.1108,-0.522774 0.0568,-0.261387 0.11933,-0.522774 l 0.52562,-2.10246 h 0.89212 l 0.51994,2.10246 q 0.0625,0.261387 0.11932,0.522774 0.0597,0.261387 0.11365,0.522774 0.054,0.261387 0.10512,0.525615 h -0.17899 q 0.0483,-0.264228 0.0966,-0.525615 0.0511,-0.261387 0.10512,-0.522774 0.0568,-0.261387 0.11365,-0.522774 l 0.4972,-2.10246 h 0.93474 l -1.1393,4.233332 h -0.97452 l -0.60233,-2.309865 q -0.0625,-0.252863 -0.12785,-0.56255 -0.0625,-0.309687 -0.15058,-0.696085 h 0.23866 q -0.0852,0.386398 -0.14774,0.696085 -0.0625,0.309687 -0.1307,0.56255 l -0.59664,2.309865 z m 5.98916,0.06819 q -0.45174,0 -0.79552,-0.196041 -0.34379,-0.19604 -0.53698,-0.548344 -0.19036,-0.352304 -0.19036,-0.821096 0,-0.471633 0.19036,-0.823937 0.19319,-0.352304 0.53698,-0.548344 0.34378,-0.198881 0.79552,-0.198881 0.45743,0 0.79837,0.198881 0.34378,0.19604 0.53414,0.548344 0.19319,0.352304 0.19319,0.823937 0,0.468792 -0.19319,0.821096 -0.19036,0.352304 -0.53414,0.548344 -0.34094,0.196041 -0.79837,0.196041 z m 0,-0.679038 q 0.20456,0 0.35799,-0.105123 0.15342,-0.107964 0.23865,-0.306846 0.0852,-0.198881 0.0852,-0.474474 0,-0.281275 -0.0852,-0.480156 -0.0852,-0.198881 -0.23865,-0.304004 -0.15343,-0.107965 -0.35799,-0.107965 -0.20172,0 -0.35514,0.107965 -0.15343,0.105123 -0.23866,0.304004 -0.0852,0.198881 -0.0852,0.480156 0,0.278434 0.0852,0.477316 0.0852,0.19604 0.23866,0.304004 0.15342,0.105123 0.35514,0.105123 z m 1.98597,0.61085 v -3.000267 h 0.80689 v 0.511409 h 0.009 q 0.0824,-0.269911 0.25854,-0.400604 0.17616,-0.130693 0.47448,-0.130693 0.0739,0 0.13353,0.0028 0.0625,0 0.11365,0.0028 v 0.713132 q -0.0455,-0.0028 -0.15058,-0.0085 -0.10228,-0.0057 -0.21025,-0.0057 -0.17047,0 -0.30684,0.07955 -0.13638,0.07671 -0.21309,0.230134 -0.0767,0.153423 -0.0767,0.380716 v 1.625145 z m 2.93493,-0.863713 v -0.988725 h 0.0881 l 1.05123,-1.147829 h 0.98304 l -1.36091,1.508657 h -0.1932 z m -0.7586,0.863713 V 60.32485 h 0.83815 v 4.233332 z m 1.96325,0 -0.94895,-1.306935 0.55403,-0.582438 1.37512,1.889373 z m 2.48602,0.07387 q -0.38924,0 -0.69324,-0.119329 -0.30401,-0.12217 -0.48584,-0.349463 -0.18184,-0.227293 -0.21025,-0.548344 h 0.82394 q 0.0227,0.19604 0.16479,0.306845 0.14206,0.110806 0.3864,0.110806 0.23297,0 0.36651,-0.08808 0.13353,-0.08808 0.13353,-0.227293 0,-0.119329 -0.10228,-0.193199 -0.10228,-0.07387 -0.28696,-0.107964 l -0.52561,-0.102282 q -0.43754,-0.08523 -0.66484,-0.306846 -0.22729,-0.22161 -0.22729,-0.568232 0,-0.284116 0.15342,-0.497203 0.15627,-0.213088 0.44038,-0.329575 0.28696,-0.116488 0.67904,-0.116488 0.38924,0 0.67904,0.125011 0.2898,0.12217 0.45174,0.349463 0.16479,0.224452 0.17331,0.539821 h -0.77563 q -0.003,-0.181834 -0.14206,-0.301163 -0.13922,-0.119329 -0.36367,-0.119329 -0.21593,0 -0.3381,0.09376 -0.12217,0.09092 -0.12217,0.224452 0,0.116488 0.0966,0.190358 0.0966,0.07387 0.26707,0.110805 l 0.56823,0.110806 q 0.45459,0.08808 0.66768,0.289798 0.21592,0.198881 0.21592,0.531297 0,0.298322 -0.17046,0.522774 -0.16763,0.221611 -0.4688,0.346622 -0.29832,0.12217 -0.6904,0.12217 z"
       id="path2" /><text
       xml:space="preserve"
       style="font-size:4.23333px;line-height:1.2;font-family:'Acmeon Text Font';-inkscape-font-specification:'Acmeon Text Font';fill:#000000;fill-opacity:1;stroke-width:1.05833;stroke-linecap:square;paint-order:stroke fill markers"
       x="-664.93927"
       y="879.10986"
       id="text195"><tspan
         style="font-style:normal;font-variant:normal;font-weight:normal;font-stretch:normal;font-size:4.23333px;line-height:1.2;font-family:'Acmeon Text Font';-inkscape-font-specification:'Acmeon Text Font';fill:#000000;fill-opacity:1;stroke-width:1.05833"
         x="-664.93927"
         y="879.10986"
         sodipodi:role="line"
         id="tspan195" /></text><text
       xml:space="preserve"
       style="font-size:4.23333px;line-height:1.2;font-family:'Acmeon Text Font';-inkscape-font-specification:'Acmeon Text Font';fill:#000000;fill-opacity:1;stroke-width:1.05833;stroke-linecap:square;paint-order:stroke fill markers"
       x="-664.93927"
       y="900.27655"
       id="text201"><tspan
         sodipodi:role="line"
         style="font-style:normal;font-variant:normal;font-weight:normal;font-stretch:normal;font-size:4.23333px;line-height:1.2;font-family:'Acmeon Text Font';-inkscape-font-specification:'Acmeon Text Font';fill:#000000;fill-opacity:1;stroke-width:1.05833"
         x="-664.93927"
         y="900.27655"
         id="tspan201" /></text><text
       xml:space="preserve"
       style="font-size:4.36403px;line-height:1.46;font-family:'Acmeon Text Font';-inkscape-font-specification:'Acmeon Text Font';fill:#000000;fill-opacity:1;stroke-width:1.05833;stroke-linecap:square;paint-order:stroke fill markers"
       x="-798.6236"
       y="846.19702"
       id="text301"><tspan
         sodipodi:role="line"
         style="font-style:normal;font-variant:normal;font-weight:normal;font-stretch:normal;font-size:4.36403px;line-height:1.46;font-family:'Acmeon Text Font';-inkscape-font-specification:'Acmeon Text Font';fill:#000000;fill-opacity:1;stroke-width:1.05833"
         x="-798.6236"
         y="846.19702"
         id="tspan317" /></text><rect
       style="fill:#ffffff;fill-opacity:0;stroke:none;stroke-width:1.05833;stroke-linecap:square;stroke-dasharray:none;stroke-opacity:1;paint-order:stroke fill markers"
       id="rect90-6"
       width="133.35001"
       height="69.849998"
       x="44.185413"
       y="-9.5249996" /><path
       d="M 56.821879,50.799546 54.009736,38.099547 h 2.703286 l 1.723572,8.599716 2.467428,-8.599716 h 2.485572 l 2.467429,8.581573 1.723572,-8.581573 h 2.612572 l -2.794001,12.699999 h -2.775857 l -2.503715,-8.853713 -2.54,8.853713 z m 14.986007,0 V 38.099547 h 9.760859 v 2.286001 h -7.130144 v 2.902857 h 4.699 v 2.213429 h -4.699 v 3.011715 h 7.202715 v 2.285997 z m 11.702153,0 V 38.099547 h 5.969001 q 1.288143,0 2.249715,0.435426 0.961571,0.435426 1.505857,1.233714 0.544284,0.780144 0.544284,1.814286 0,0.834572 -0.435426,1.542144 -0.417288,0.689428 -1.143001,1.124857 0.925286,0.435426 1.469572,1.179285 0.544284,0.743858 0.544284,1.687286 0,1.088572 -0.562428,1.923144 -0.544284,0.834571 -1.560286,1.306285 -0.997857,0.453572 -2.322286,0.453572 z m 2.630715,-7.511141 h 3.175001 q 0.852714,0 1.342571,-0.399144 0.508002,-0.417288 0.508002,-1.106714 0,-0.689428 -0.508002,-1.088572 -0.489858,-0.417288 -1.342571,-0.417288 h -3.175001 z m 0,5.334001 h 3.429 q 0.907143,0 1.451429,-0.435432 0.544284,-0.45357 0.544284,-1.197428 0,-0.762 -0.544284,-1.197429 -0.544284,-0.45357 -1.451429,-0.45357 h -3.429 z m 15.983856,2.358574 q -1.41515,0 -2.64886,-0.48984 -1.233714,-0.50802 -2.159,-1.39702 -0.907143,-0.889 -1.433286,-2.068286 -0.508,-1.197429 -0.508,-2.576286 0,-1.397 0.508002,-2.576286 0.52614,-1.197429 1.451429,-2.086429 0.925286,-0.889 2.140858,-1.378857 1.233717,-0.508002 2.648857,-0.508002 1.05229,0 2.032,0.290286 0.97971,0.290286 1.81428,0.816428 0.85272,0.52614 1.45143,1.270001 l -1.778,1.759859 q -0.68943,-0.852715 -1.59657,-1.288143 -0.889,-0.435429 -1.92314,-0.435429 -0.85272,0 -1.59657,0.326574 -0.743861,0.30843 -1.288147,0.870857 -0.544284,0.544284 -0.852714,1.306286 -0.30843,0.743857 -0.30843,1.632858 0,0.870857 0.30843,1.632857 0.30843,0.743857 0.870857,1.306286 0.562428,0.544284 1.306284,0.852714 0.762,0.30843 1.651,0.30843 0.99786,0 1.86872,-0.417288 0.87086,-0.417288 1.54214,-1.197429 l 1.72357,1.70543 q -0.59874,0.725714 -1.43328,1.251857 -0.83458,0.52614 -1.81429,0.816424 -0.96157,0.27216 -1.97757,0.27216 z m 6.76729,-0.18144 V 38.099547 h 9.76086 v 2.286001 h -7.13014 v 2.902857 h 4.699 v 2.213429 h -4.699 v 3.011715 h 7.20271 v 2.285997 z m 11.70216,0 V 38.099547 h 2.63072 v 10.377716 h 6.94871 v 2.322283 z m 11.39371,0 V 38.099547 h 2.63072 v 10.377716 h 6.94871 v 2.322283 z m 10.54102,0 5.22514,-12.699999 h 3.02986 l 5.17071,12.699999 h -2.84842 l -1.28814,-3.338283 h -5.24329 l -1.30629,3.338283 z m 4.86229,-5.442855 h 3.62857 l -1.81429,-4.680858 z m 9.63386,5.442855 V 38.099547 h 6.20486 q 1.28814,0 2.26785,0.508002 0.99786,0.489858 1.54215,1.378857 0.56244,0.889 0.56244,2.050144 0,1.215571 -0.67129,2.140857 -0.67128,0.925286 -1.79614,1.378857 l 2.81214,5.243282 h -2.93915 l -2.48558,-4.862283 h -2.86657 v 4.862283 z m 2.63071,-7.021278 h 3.33829 q 0.889,0 1.41514,-0.471714 0.54426,-0.471714 0.54426,-1.233714 0,-0.762 -0.54426,-1.233715 -0.52614,-0.471714 -1.41514,-0.471714 h -3.33829 z"
       id="text1-5"
       style="-inkscape-font-specification:'Acmeon Font Bold';fill:#000000;fill-opacity:1;stroke:none;stroke-width:0.529167;stroke-linecap:square;stroke-miterlimit:2.8;paint-order:stroke fill markers"
       aria-label="WEBCELLAR" /><path
       id="path611-6"
       style="fill:#00bc65;fill-opacity:1;stroke:none;stroke-width:0.793752;stroke-linecap:round;stroke-miterlimit:2.8;stroke-dasharray:none;stroke-opacity:1"
       d="m 107.65135,24.500434 c 0.0369,0.100978 0.0738,0.199797 0.11159,0.297625 0.5022,1.305781 1.0887,2.329776 1.65569,2.953268 0.47528,0.522622 0.87992,0.749508 1.23711,0.809267 a 14.287325,14.287275 0 0 0 0.20466,0.0144 14.287325,14.287275 0 0 0 0.13491,-0.0047 14.287325,14.287275 0 0 0 0.0189,0 c 0.36827,-0.0477 0.78748,-0.272966 1.28362,-0.818537 0.56699,-0.62351 1.15349,-1.647487 1.65568,-2.953259 0.036,-0.09333 0.072,-0.187467 0.10692,-0.283675 a 10.715488,10.715447 0 0 1 -3.19974,0.488332 10.715488,10.715447 0 0 1 -3.20907,-0.502282 z" /><path
       id="path612-2"
       style="fill:#00bc65;fill-opacity:1;stroke:none;stroke-width:0.793752;stroke-linecap:round;stroke-miterlimit:2.8;stroke-dasharray:none;stroke-opacity:1"
       d="m 120.43641,9.5248405 a 10.715488,10.715447 0 0 1 1.13945,4.7624285 10.715488,10.715447 0 0 1 -1.12085,4.762428 h 3.87413 a 14.287325,14.287275 0 0 0 0.81853,-4.762428 14.287325,14.287275 0 0 0 -0.8557,-4.7624285 z" /><path
       id="path614-7"
       style="fill:#00bc65;fill-opacity:1;stroke:none;stroke-width:0.793752;stroke-linecap:round;stroke-miterlimit:2.8;stroke-dasharray:none;stroke-opacity:1"
       d="m 97.433527,9.5248405 a 14.287325,14.287275 0 0 0 -0.860386,4.7624285 14.287325,14.287275 0 0 0 0.860386,4.762428 h 3.850873 a 10.715488,10.715447 0 0 1 -1.13945,-4.762428 10.715488,10.715447 0 0 1 1.13945,-4.7624285 z" /><path
       id="path615-0"
       style="fill:#00bc65;fill-opacity:1;stroke:none;stroke-width:0.793752;stroke-linecap:round;stroke-miterlimit:2.8;stroke-dasharray:none;stroke-opacity:1"
       d="M 110.86041,-6.609928e-6 A 14.287325,14.287275 0 0 0 110.65575,0.01349318 c -0.3572,0.05939906 -0.76184,0.28655549 -1.23711,0.80926727 -0.56699,0.62351015 -1.1535,1.64748705 -1.65569,2.95325855 -0.0378,0.097828 -0.0747,0.1966469 -0.1116,0.2976253 a 10.715488,10.715447 0 0 1 3.20907,-0.5022821 10.715488,10.715447 0 0 1 3.2044,0.5022821 c -0.0369,-0.1009784 -0.0738,-0.1997969 -0.1116,-0.2976253 -0.50219,-1.3057715 -1.0887,-2.3297754 -1.65569,-2.95325855 -0.47528,-0.52262178 -0.87991,-0.74950821 -1.23712,-0.80926727 A 14.287325,14.287275 0 0 0 110.86043,-6.609928e-6 Z" /><path
       style="font-weight:bold;font-size:8.73452px;line-height:1.5;font-family:'Acmeon Font';-inkscape-font-specification:'Acmeon Font Bold';text-align:center;text-anchor:middle;fill:#00bc65;fill-opacity:1;stroke:none;stroke-width:0.529167;stroke-miterlimit:3.6;stroke-dasharray:none;stroke-opacity:1;paint-order:stroke fill markers"
       d="m 102.52729,14.287332 6.50069,-1.833632 1.83352,-6.5005973 1.83353,6.5005973 6.50069,1.833632 -6.50069,1.833523 -1.83353,6.500732 -1.83352,-6.500732 z"
       id="path617-5"
       sodipodi:nodetypes="ccccccccc" /><path
       style="fill:#00bc65;fill-opacity:1;stroke:none;stroke-width:0.793752;stroke-linecap:round;stroke-miterlimit:2.8;stroke-dasharray:none;stroke-opacity:1"
       d="m 117.35758,21.421609 c -0.30069,1.554762 -0.69119,2.986846 -1.17201,4.236882 -0.3222,0.837617 -0.68354,1.60049 -1.08829,2.274246 a 14.287325,14.287275 0 0 0 8.14357,-6.511128 z"
       id="path618-7" /><path
       style="fill:#00bc65;fill-opacity:1;stroke:none;stroke-width:0.793752;stroke-linecap:round;stroke-miterlimit:2.8;stroke-dasharray:none;stroke-opacity:1"
       d="m 98.521808,21.421609 a 14.287325,14.287275 0 0 0 8.097052,6.492525 c -0.39581,-0.669589 -0.75013,-1.424965 -1.06968,-2.255643 -0.48078,-1.250036 -0.87137,-2.68212 -1.172,-4.236882 z"
       id="path619-1" /><path
       style="fill:#00bc65;fill-opacity:1;stroke:none;stroke-width:0.793752;stroke-linecap:round;stroke-miterlimit:2.8;stroke-dasharray:none;stroke-opacity:1"
       d="m 106.61886,0.660412 a 14.287325,14.287275 0 0 0 -8.097052,6.4925248 h 5.855372 c 0.30068,-1.5547615 0.69119,-2.986864 1.172,-4.2368903 0.31949,-0.8306869 0.67382,-1.586036 1.06968,-2.2556345 z"
       id="path620-6" /><path
       style="fill:#00bc65;fill-opacity:1;stroke:none;stroke-width:0.793752;stroke-linecap:round;stroke-miterlimit:2.8;stroke-dasharray:none;stroke-opacity:1"
       d="m 115.10659,0.65575907 c 0.40121,0.67021943 0.75904,1.42858353 1.07898,2.26028743 0.48077,1.2500263 0.87137,2.6821198 1.17201,4.2368903 h 5.84606 a 14.287325,14.287275 0 0 0 -8.09705,-6.49717773 z"
       id="path621-0" /><rect
       style="fill:#ffffff;fill-opacity:0;stroke:none;stroke-width:1.05833;stroke-linecap:square;stroke-dasharray:none;stroke-opacity:1;paint-order:stroke fill markers"
       id="rect181-2"
       width="133.35001"
       height="69.849998"
       x="44.185413"
       y="-9.5249996" /></g></svg>
