<?xml version="1.0" encoding="UTF-8" standalone="no"?>
<!-- Created with Inkscape (http://www.inkscape.org/) -->

<svg
   width="838"
   height="470"
   viewBox="0 0 221.72082 124.35417"
   version="1.1"
   id="svg1"
   inkscape:version="1.3 (0e150ed6c4, 2023-07-21)"
   sodipodi:docname="github-header-raw.svg"
   inkscape:export-filename="icon-64x64.png"
   inkscape:export-xdpi="384"
   inkscape:export-ydpi="384"
   xml:space="preserve"
   xmlns:inkscape="http://www.inkscape.org/namespaces/inkscape"
   xmlns:sodipodi="http://sodipodi.sourceforge.net/DTD/sodipodi-0.dtd"
   xmlns="http://www.w3.org/2000/svg"
   xmlns:svg="http://www.w3.org/2000/svg"><sodipodi:namedview
     id="namedview1"
     pagecolor="#ffffff"
     bordercolor="#ffffff"
     borderopacity="1"
     inkscape:showpageshadow="0"
     inkscape:pageopacity="0"
     inkscape:pagecheckerboard="true"
     inkscape:deskcolor="#505050"
     inkscape:document-units="px"
     inkscape:zoom="1.4142136"
     inkscape:cx="379.36278"
     inkscape:cy="274.00387"
     inkscape:window-width="1920"
     inkscape:window-height="1009"
     inkscape:window-x="-8"
     inkscape:window-y="-8"
     inkscape:window-maximized="1"
     inkscape:current-layer="layer1"
     showgrid="false"><inkscape:grid
       id="grid2"
       units="px"
       originx="0"
       originy="0"
       spacingx="0.26458332"
       spacingy="0.26458333"
       empcolor="#0099e5"
       empopacity="0.30196078"
       color="#0099e5"
       opacity="0.14901961"
       empspacing="5"
       dotted="false"
       gridanglex="30"
       gridanglez="30"
       visible="false" /></sodipodi:namedview><defs
     id="defs1" /><g
     inkscape:label="Layer 1"
     inkscape:groupmode="layer"
     id="layer1"><text
       xml:space="preserve"
       style="font-style:normal;font-variant:normal;font-weight:bold;font-stretch:normal;font-size:2.91042px;line-height:1.5;font-family:'Acmeon Font';-inkscape-font-specification:'Acmeon Font Bold';text-align:center;text-anchor:middle;fill:#000000;stroke-width:0.529167;stroke-linecap:square;stroke-miterlimit:2.8;paint-order:stroke fill markers"
       x="19.215343"
       y="4.2635021"
       id="text3"><tspan
         sodipodi:role="line"
         id="tspan3"
         style="stroke-width:0.529167"
         x="19.215343"
         y="4.2635021" /></text><text
       xml:space="preserve"
       style="font-style:normal;font-variant:normal;font-weight:bold;font-stretch:normal;font-size:3.175px;line-height:1.5;font-family:'Acmeon Text Font';-inkscape-font-specification:'Acmeon Text Font Bold';text-align:start;text-anchor:start;fill:#000000;fill-opacity:1;stroke:none;stroke-width:1.05833;stroke-linecap:square;stroke-dasharray:none;stroke-opacity:1;paint-order:stroke fill markers"
       x="70.292137"
       y="83.546036"
       id="text58"><tspan
         sodipodi:role="line"
         id="tspan58"
         style="fill:#000000;fill-opacity:1;stroke-width:1.05833"
         x="70.292137"
         y="83.546036" /></text><text
       xml:space="preserve"
       style="font-style:normal;font-variant:normal;font-weight:bold;font-stretch:normal;font-size:4.23333px;line-height:1.2;font-family:'Acmeon Text Font';-inkscape-font-specification:'Acmeon Text Font Bold';fill:none;fill-opacity:0.203922;stroke-width:1.05833;stroke-linecap:square;paint-order:stroke fill markers"
       x="-247.01022"
       y="406.36749"
       id="text99"><tspan
         sodipodi:role="line"
         id="tspan99"
         style="stroke-width:1.05833"
         x="-247.01022"
         y="406.36749" /></text><rect
       style="fill:#00bc65;fill-opacity:0.203922;stroke-width:1.05833;stroke-linecap:square;paint-order:stroke fill markers"
       id="rect692"
       width="13.758333"
       height="13.758333"
       x="113.24159"
       y="76.729073" /><text
       xml:space="preserve"
       style="font-weight:bold;font-size:5.8187px;line-height:1.5;font-family:'Red Hat Display';-inkscape-font-specification:'Red Hat Display Bold';text-align:center;text-anchor:middle;fill:#000000;fill-opacity:1;stroke-width:0.264583;stroke-linecap:square;paint-order:stroke fill markers"
       x="110.86184"
       y="44.979015"
       id="text188"><tspan
         sodipodi:role="line"
         id="tspan188"
         style="font-style:normal;font-variant:normal;font-weight:bold;font-stretch:normal;font-size:5.8187px;font-family:'Acmeon Text Font';-inkscape-font-specification:'Acmeon Text Font Bold';fill:#000000;fill-opacity:1;stroke-width:0.264583"
         x="110.86184"
         y="44.979015">JavaScript (and TypeScript) for Excel <tspan
   style="fill:#00bc65;fill-opacity:1"
   id="tspan1">That Just Works</tspan></tspan></text><g
       id="g212"
       transform="matrix(4.0000001,0,0,4.0000001,66.410447,-6.350069)"
       style="stroke-width:0.25"><rect
         style="fill:#ffffff;fill-opacity:0;stroke:none;stroke-width:0.264583;stroke-linecap:square;stroke-dasharray:none;stroke-opacity:1;paint-order:stroke fill markers"
         id="rect202"
         width="22.225"
         height="11.641666"
         x="0"
         y="0" /><path
         d="M 2.1060777,10.054091 1.6373872,7.9374245 h 0.4505476 l 0.287262,1.4332859 0.4112381,-1.4332859 h 0.414262 L 3.611935,9.3676866 3.899197,7.9374245 H 4.3346256 L 3.8689589,10.054091 H 3.406316 L 2.9890302,8.5784722 2.5656968,10.054091 Z m 2.4976678,0 V 7.9374245 H 6.2305553 V 8.3184246 H 5.042198 V 8.8022342 H 5.8253647 V 9.171139 H 5.042198 v 0.5019524 h 1.2004525 v 0.3809996 z m 1.9503589,0 V 7.9374245 h 0.9948335 q 0.2146905,0 0.3749524,0.072571 0.1602619,0.072571 0.2509762,0.205619 0.090714,0.1300239 0.090714,0.302381 0,0.1390953 -0.072571,0.2570239 -0.069548,0.1149047 -0.1905001,0.1874762 0.1542143,0.072571 0.2449286,0.1965476 0.090714,0.1239762 0.090714,0.2812143 0,0.1814286 -0.093738,0.3205239 Q 8.1537,9.8998766 7.9843664,9.9784957 7.8180568,10.054091 7.5973187,10.054091 Z M 6.9925568,8.8022342 h 0.5291668 q 0.142119,0 0.2237619,-0.066524 0.084667,-0.069548 0.084667,-0.1844524 0,-0.1149047 -0.084667,-0.1814286 -0.081643,-0.069548 -0.2237619,-0.069548 H 6.9925568 Z m 0,0.8890001 h 0.5715001 q 0.1511905,0 0.2419048,-0.072572 0.090714,-0.075595 0.090714,-0.1995714 0,-0.127 -0.090714,-0.1995715 -0.090714,-0.075595 -0.2419048,-0.075595 H 6.9925568 Z M 9.6565325,10.08433 q -0.2358572,0 -0.4414763,-0.08164 Q 9.0094371,9.91802 8.8552228,9.7698533 8.7040323,9.6216866 8.6163418,9.425139 8.5316752,9.2255675 8.5316752,8.995758 q 0,-0.2328334 0.084667,-0.429381 0.08769,-0.1995715 0.2419048,-0.3477382 0.1542143,-0.1481666 0.3568096,-0.2298095 0.2056191,-0.084667 0.4414763,-0.084667 0.1753809,0 0.3386667,0.048381 0.1632854,0.048381 0.3023804,0.1360714 0.142119,0.08769 0.241905,0.2116667 L 10.243152,8.5935913 Q 10.128247,8.4514722 9.9770563,8.3789008 9.8288896,8.3063293 9.6565325,8.3063293 q -0.1421191,0 -0.2660953,0.054429 -0.1239762,0.051405 -0.2146905,0.1451429 -0.090714,0.090714 -0.1421191,0.2177143 -0.051405,0.1239762 -0.051405,0.2721429 0,0.1451429 0.051405,0.2721429 0.051405,0.1239762 0.1451429,0.2177143 0.093738,0.090714 0.2177143,0.1421191 0.127,0.051405 0.2751667,0.051405 0.1663095,0 0.3114524,-0.069548 0.1451431,-0.069548 0.2570241,-0.1995715 l 0.287262,0.2842382 q -0.09979,0.1209524 -0.238881,0.2086429 -0.139096,0.08769 -0.3023813,0.1360707 -0.1602619,0.04536 -0.3295952,0.04536 z M 10.784415,10.05409 V 7.9374245 h 1.62681 v 0.3810001 h -1.188358 v 0.4838096 h 0.783167 V 9.171139 h -0.783167 v 0.5019524 h 1.200453 v 0.3809996 z m 1.950359,0 V 7.9374245 h 0.438453 v 1.7296193 h 1.158119 v 0.3870472 z m 1.898953,0 V 7.9374245 h 0.438452 v 1.7296193 h 1.158119 v 0.3870472 z m 1.756836,0 0.870857,-2.1166665 h 0.504977 L 18.628182,10.05409 H 18.153444 L 17.938754,9.4977094 H 17.064873 L 16.847158,10.05409 Z m 0.810381,-0.9071425 h 0.604762 L 17.503325,8.3668045 Z M 18.806588,10.05409 V 7.9374245 h 1.034143 q 0.21469,0 0.377976,0.084667 0.16631,0.081643 0.257024,0.2298095 0.09374,0.1481667 0.09374,0.3416906 0,0.2025952 -0.111881,0.3568095 -0.111881,0.1542143 -0.299357,0.2298096 l 0.46869,0.8738803 H 20.137064 L 19.722802,9.2437104 H 19.24504 V 10.054091 Z M 19.24504,8.883877 h 0.556381 q 0.148167,0 0.235857,-0.078619 0.09071,-0.078619 0.09071,-0.2056191 0,-0.127 -0.09071,-0.2056191 -0.08769,-0.078619 -0.235857,-0.078619 H 19.24504 Z"
         id="path202"
         style="-inkscape-font-specification:'Acmeon Font Bold';stroke:none;stroke-width:0.132292;stroke-linecap:square;stroke-miterlimit:2.8;paint-order:stroke fill markers"
         aria-label="WEBCELLAR" /><g
         id="g211"
         transform="matrix(1.4999764,0,0,1.4999764,-90.496803,-16.490711)"
         style="stroke:none;stroke-width:0.166669"><path
           id="path203"
           style="fill:#00bc65;fill-opacity:1;stroke:none;stroke-width:0.132294;stroke-linecap:round;stroke-miterlimit:2.8;stroke-dasharray:none;stroke-opacity:1"
           d="m 67.384033,14.774644 c 0.0041,0.01122 0.0082,0.0222 0.0124,0.03307 0.0558,0.145089 0.120968,0.258868 0.183968,0.328146 0.05281,0.05807 0.09777,0.08328 0.137459,0.08992 a 1.5875055,1.5875 0 0 0 0.02274,0.0016 1.5875055,1.5875 0 0 0 0.01499,-5.17e-4 1.5875055,1.5875 0 0 0 0.0021,0 c 0.04092,-0.0053 0.0875,-0.03033 0.142627,-0.09095 0.063,-0.06928 0.128168,-0.183057 0.183968,-0.328145 0.004,-0.01037 0.008,-0.02083 0.01188,-0.03152 a 1.1906285,1.1906239 0 0 1 -0.355533,0.05426 1.1906285,1.1906239 0 0 1 -0.356568,-0.05581 z" /><path
           id="path204"
           style="fill:#00bc65;fill-opacity:1;stroke:none;stroke-width:0.132294;stroke-linecap:round;stroke-miterlimit:2.8;stroke-dasharray:none;stroke-opacity:1"
           d="m 68.804618,13.110663 a 1.1906285,1.1906239 0 0 1 0.126608,0.529167 1.1906285,1.1906239 0 0 1 -0.124541,0.529167 H 69.23715 A 1.5875055,1.5875 0 0 0 69.3281,13.63983 1.5875055,1.5875 0 0 0 69.23302,13.110663 Z" /><path
           id="path205"
           style="fill:#00bc65;fill-opacity:1;stroke:none;stroke-width:0.132294;stroke-linecap:round;stroke-miterlimit:2.8;stroke-dasharray:none;stroke-opacity:1"
           d="m 66.248702,13.110663 a 1.5875055,1.5875 0 0 0 -0.0956,0.529167 1.5875055,1.5875 0 0 0 0.0956,0.529167 h 0.427881 a 1.1906285,1.1906239 0 0 1 -0.126607,-0.529167 1.1906285,1.1906239 0 0 1 0.126607,-0.529167 z" /><path
           id="path206"
           style="fill:#00bc65;fill-opacity:1;stroke:none;stroke-width:0.132294;stroke-linecap:round;stroke-miterlimit:2.8;stroke-dasharray:none;stroke-opacity:1"
           d="m 67.740601,12.05233 a 1.5875055,1.5875 0 0 0 -0.02274,0.0015 c -0.03969,0.0066 -0.08465,0.03184 -0.137459,0.08992 -0.063,0.06928 -0.128169,0.183057 -0.183968,0.328145 -0.0042,0.01087 -0.0083,0.02185 -0.0124,0.03307 a 1.1906285,1.1906239 0 0 1 0.356568,-0.05581 1.1906285,1.1906239 0 0 1 0.35605,0.05581 c -0.0041,-0.01122 -0.0082,-0.0222 -0.0124,-0.03307 -0.0558,-0.145088 -0.120968,-0.258868 -0.183968,-0.328145 -0.05281,-0.05807 -0.09777,-0.08328 -0.13746,-0.08992 a 1.5875055,1.5875 0 0 0 -0.02222,-0.0015 z" /><path
           style="font-weight:bold;font-size:8.73452px;line-height:1.5;font-family:'Acmeon Font';-inkscape-font-specification:'Acmeon Font Bold';text-align:center;text-anchor:middle;fill:#00bc65;fill-opacity:1;stroke:none;stroke-width:0.088196;stroke-miterlimit:3.6;stroke-dasharray:none;stroke-opacity:1;paint-order:stroke fill markers"
           d="m 66.814684,13.639837 0.722311,-0.20374 0.203728,-0.7223 0.203728,0.7223 0.722311,0.20374 -0.722311,0.203728 -0.203728,0.722315 -0.203728,-0.722315 z"
           id="path207"
           sodipodi:nodetypes="ccccccccc" /><path
           style="fill:#00bc65;fill-opacity:1;stroke:none;stroke-width:0.132294;stroke-linecap:round;stroke-miterlimit:2.8;stroke-dasharray:none;stroke-opacity:1"
           d="m 68.46252,14.432547 c -0.03341,0.172754 -0.0768,0.331877 -0.130225,0.470772 -0.0358,0.09307 -0.07595,0.177835 -0.120923,0.252698 a 1.5875055,1.5875 0 0 0 0.904855,-0.72347 z"
           id="path208" /><path
           style="fill:#00bc65;fill-opacity:1;stroke:none;stroke-width:0.132294;stroke-linecap:round;stroke-miterlimit:2.8;stroke-dasharray:none;stroke-opacity:1"
           d="m 66.369624,14.432547 a 1.5875055,1.5875 0 0 0 0.899687,0.721403 c -0.04398,-0.0744 -0.08335,-0.158332 -0.118856,-0.250631 -0.05342,-0.138895 -0.09682,-0.298018 -0.130224,-0.470772 z"
           id="path209" /><path
           style="fill:#00bc65;fill-opacity:1;stroke:none;stroke-width:0.132294;stroke-linecap:round;stroke-miterlimit:2.8;stroke-dasharray:none;stroke-opacity:1"
           d="m 67.269311,12.125711 a 1.5875055,1.5875 0 0 0 -0.899687,0.721403 h 0.650607 c 0.03341,-0.172754 0.0768,-0.331879 0.130224,-0.470773 0.0355,-0.0923 0.07487,-0.176229 0.118856,-0.25063 z"
           id="path210" /><path
           style="fill:#00bc65;fill-opacity:1;stroke:none;stroke-width:0.132294;stroke-linecap:round;stroke-miterlimit:2.8;stroke-dasharray:none;stroke-opacity:1"
           d="m 68.212406,12.125194 c 0.04458,0.07447 0.08434,0.158734 0.119889,0.251147 0.05342,0.138894 0.09682,0.298018 0.130225,0.470773 h 0.649573 a 1.5875055,1.5875 0 0 0 -0.899687,-0.72192 z"
           id="path211" /></g><rect
         style="fill:#ffffff;fill-opacity:0;stroke:none;stroke-width:0.264583;stroke-linecap:square;stroke-dasharray:none;stroke-opacity:1;paint-order:stroke fill markers"
         id="rect211"
         width="22.225"
         height="11.641666"
         x="0"
         y="0" /></g><g
       id="g693"
       transform="matrix(0.38217592,0,0,0.38217592,115.53434,79.022195)"
       style="stroke-width:0.692308"><rect
         style="fill:#010101;fill-opacity:0;stroke-width:2.76923;stroke-linecap:square;paint-order:stroke fill markers"
         id="rect693"
         width="24"
         height="24"
         x="0"
         y="0" /><path
         d="m 13,1 10e-4,3.06201 C 16.6192,4.51365 19.4869,7.38163 19.9381,11 H 23 v 2 l -3.062,10e-4 c -0.4516,3.6179 -3.3191,6.4854 -6.937,6.937 L 13,23 H 11 V 19.9381 C 7.38163,19.4869 4.51365,16.6192 4.06201,13.001 L 1,13 V 11 H 4.06189 C 4.51312,7.38129 7.38129,4.51312 11,4.06189 V 1 Z m -1,5 c -3.31371,0 -6,2.68629 -6,6 0,3.3137 2.68629,6 6,6 3.3137,0 6,-2.6863 6,-6 0,-3.31371 -2.6863,-6 -6,-6 z m 0,4 c 1.1046,0 2,0.8954 2,2 0,1.1046 -0.8954,2 -2,2 -1.1046,0 -2,-0.8954 -2,-2 0,-1.1046 0.8954,-2 2,-2 z"
         id="path693"
         style="fill:#00bc65;fill-opacity:1;stroke-width:0.692308" /></g><text
       xml:space="preserve"
       style="font-size:4.23333px;line-height:1.2;font-family:'Acmeon Text Font';-inkscape-font-specification:'Acmeon Text Font';fill:#000000;fill-opacity:1;stroke-width:1.05833;stroke-linecap:square;paint-order:stroke fill markers"
       x="-664.93927"
       y="879.10986"
       id="text195"><tspan
         style="font-style:normal;font-variant:normal;font-weight:normal;font-stretch:normal;font-size:4.23333px;line-height:1.2;font-family:'Acmeon Text Font';-inkscape-font-specification:'Acmeon Text Font';fill:#000000;fill-opacity:1;stroke-width:1.05833"
         x="-664.93927"
         y="879.10986"
         sodipodi:role="line"
         id="tspan195" /></text><g
       id="g460"
       transform="matrix(0.86666666,0,0,0.86666666,703.01554,-680.50834)"
       style="stroke-width:1.15385"><rect
         style="fill:#00bc65;fill-opacity:0.203922;stroke-width:1.22115;stroke-linecap:square;paint-order:stroke fill markers"
         id="rect193"
         width="15.875"
         height="15.875"
         x="-680.50842"
         y="849.31244" /><g
         id="g198"
         transform="matrix(0.44097222,0,0,0.44097222,-677.86296,851.95828)"
         style="stroke-width:0.692308"><rect
           style="fill:#010101;fill-opacity:0;stroke-width:2.76923;stroke-linecap:square;paint-order:stroke fill markers"
           id="rect198"
           width="24"
           height="24"
           x="0"
           y="0" /><path
           d="M 7.94101,18 C 7.64391,16.7274 6.30412,15.6857 5.75395,14.9992 4.65645,13.6297 4,11.8915 4,10 4,5.58172 7.58172,2 12,2 c 4.4183,0 8,3.58172 8,8 0,1.8925 -0.6572,3.6315 -1.7557,5.0014 C 17.6944,15.687 16.3558,16.7276 16.059,18 Z M 16,20 v 1 c 0,1.1046 -0.8954,2 -2,2 H 10 C 8.89543,23 8,22.1046 8,21 V 20 Z M 13,10.0048 V 6 L 8.5,12.0048 H 11 v 4 l 4.5,-6 z"
           id="path198"
           style="fill:#00bc65;fill-opacity:1;stroke-width:0.692308" /></g></g><text
       xml:space="preserve"
       style="font-size:4.23333px;line-height:1.2;font-family:'Acmeon Text Font';-inkscape-font-specification:'Acmeon Text Font';fill:#000000;fill-opacity:1;stroke-width:1.05833;stroke-linecap:square;paint-order:stroke fill markers"
       x="-664.93927"
       y="900.27655"
       id="text201"><tspan
         sodipodi:role="line"
         style="font-style:normal;font-variant:normal;font-weight:normal;font-stretch:normal;font-size:4.23333px;line-height:1.2;font-family:'Acmeon Text Font';-inkscape-font-specification:'Acmeon Text Font';fill:#000000;fill-opacity:1;stroke-width:1.05833"
         x="-664.93927"
         y="900.27655"
         id="tspan201" /></text><text
       xml:space="preserve"
       style="font-size:4.36403px;line-height:1.46;font-family:'Acmeon Text Font';-inkscape-font-specification:'Acmeon Text Font';fill:#000000;fill-opacity:1;stroke-width:1.05833;stroke-linecap:square;paint-order:stroke fill markers"
       x="-798.6236"
       y="846.19702"
       id="text301"><tspan
         sodipodi:role="line"
         style="font-style:normal;font-variant:normal;font-weight:normal;font-stretch:normal;font-size:4.36403px;line-height:1.46;font-family:'Acmeon Text Font';-inkscape-font-specification:'Acmeon Text Font';fill:#000000;fill-opacity:1;stroke-width:1.05833"
         x="-798.6236"
         y="846.19702"
         id="tspan317" /></text><text
       xml:space="preserve"
       style="font-size:4.36403px;line-height:1.2124;font-family:'Acmeon Text Font';-inkscape-font-specification:'Acmeon Text Font';fill:#000000;fill-opacity:1;stroke-width:1.05833;stroke-linecap:square;paint-order:stroke fill markers"
       x="131.37251"
       y="58.737438"
       id="text340"><tspan
         sodipodi:role="line"
         style="font-style:normal;font-variant:normal;font-weight:bold;font-stretch:normal;font-size:4.36403px;line-height:1.2124;font-family:'Acmeon Text Font';-inkscape-font-specification:'Acmeon Text Font';fill:#00bc65;fill-opacity:1;stroke-width:1.05833"
         x="131.37251"
         y="58.737438"
         id="tspan441">Simple and Intuitive</tspan><tspan
         sodipodi:role="line"
         style="font-style:normal;font-variant:normal;font-weight:normal;font-stretch:normal;font-size:4.36403px;line-height:1.2124;font-family:'Acmeon Text Font';-inkscape-font-specification:'Acmeon Text Font';fill:#000000;fill-opacity:1;stroke-width:1.05833"
         x="131.37251"
         y="64.028389"
         id="tspan451">JavaScript module exports are automatically </tspan><tspan
         sodipodi:role="line"
         style="font-style:normal;font-variant:normal;font-weight:normal;font-stretch:normal;font-size:4.36403px;line-height:1.2124;font-family:'Acmeon Text Font';-inkscape-font-specification:'Acmeon Text Font';fill:#000000;fill-opacity:1;stroke-width:1.05833"
         x="131.37251"
         y="69.319336"
         id="tspan452">registered and available in Excel.</tspan><tspan
         sodipodi:role="line"
         style="font-style:normal;font-variant:normal;font-weight:normal;font-stretch:normal;font-size:4.36403px;line-height:1.2124;font-family:'Acmeon Text Font';-inkscape-font-specification:'Acmeon Text Font';fill:#000000;fill-opacity:1;stroke-width:1.05833"
         x="131.37251"
         y="74.610291"
         id="tspan453" /><tspan
         sodipodi:role="line"
         style="font-style:normal;font-variant:normal;font-weight:bold;font-stretch:normal;font-size:4.36403px;line-height:1.2124;font-family:'Acmeon Text Font';-inkscape-font-specification:'Acmeon Text Font';fill:#00bc65;fill-opacity:1;stroke-width:1.05833"
         x="131.37251"
         y="79.901237"
         id="tspan697">Emphasis on Impactful Application Logic</tspan><tspan
         sodipodi:role="line"
         style="font-style:normal;font-variant:normal;font-weight:normal;font-stretch:normal;font-size:4.36403px;line-height:1.2124;font-family:'Acmeon Text Font';-inkscape-font-specification:'Acmeon Text Font';fill:#000000;fill-opacity:1;stroke-width:1.05833"
         x="131.37251"
         y="85.192184"
         id="tspan699">Spreadsheet UIs (UI ≈ state) emphasize core </tspan><tspan
         sodipodi:role="line"
         style="font-style:normal;font-variant:normal;font-weight:normal;font-stretch:normal;font-size:4.36403px;line-height:1.2124;font-family:'Acmeon Text Font';-inkscape-font-specification:'Acmeon Text Font';fill:#000000;fill-opacity:1;stroke-width:1.05833"
         x="131.37251"
         y="90.483139"
         id="tspan700">application logic over possibly auxiliary UI logic.</tspan><tspan
         sodipodi:role="line"
         style="font-style:normal;font-variant:normal;font-weight:normal;font-stretch:normal;font-size:4.36403px;line-height:1.2124;font-family:'Acmeon Text Font';-inkscape-font-specification:'Acmeon Text Font';fill:#000000;fill-opacity:1;stroke-width:1.05833"
         x="131.37251"
         y="95.774086"
         id="tspan698" /><tspan
         sodipodi:role="line"
         style="font-style:normal;font-variant:normal;font-weight:bold;font-stretch:normal;font-size:4.36403px;line-height:1.2124;font-family:'Acmeon Text Font';-inkscape-font-specification:'Acmeon Text Font';fill:#00bc65;fill-opacity:1;stroke-width:1.05833"
         x="131.37251"
         y="101.06503"
         id="tspan454">Hardened Security (Configurable)</tspan><tspan
         sodipodi:role="line"
         style="font-style:normal;font-variant:normal;font-weight:normal;font-stretch:normal;font-size:4.36403px;line-height:1.2124;font-family:'Acmeon Text Font';-inkscape-font-specification:'Acmeon Text Font';fill:#000000;fill-opacity:1;stroke-width:1.05833"
         x="131.37251"
         y="106.35599"
         id="tspan455">External network requests are disabled and </tspan><tspan
         sodipodi:role="line"
         style="font-style:normal;font-variant:normal;font-weight:normal;font-stretch:normal;font-size:4.36403px;line-height:1.2124;font-family:'Acmeon Text Font';-inkscape-font-specification:'Acmeon Text Font';fill:#000000;fill-opacity:1;stroke-width:1.05833"
         x="131.37251"
         y="111.64693"
         id="tspan456">file access is restricted to reduce security risks.</tspan><tspan
         sodipodi:role="line"
         style="font-style:normal;font-variant:normal;font-weight:normal;font-stretch:normal;font-size:4.36403px;line-height:1.2124;font-family:'Acmeon Text Font';-inkscape-font-specification:'Acmeon Text Font';fill:#000000;fill-opacity:1;stroke-width:1.05833"
         x="131.37251"
         y="116.93788"
         id="tspan457" /><tspan
         sodipodi:role="line"
         style="font-style:normal;font-variant:normal;font-weight:normal;font-stretch:normal;font-size:4.36403px;line-height:1.2124;font-family:'Acmeon Text Font';-inkscape-font-specification:'Acmeon Text Font';fill:#000000;fill-opacity:1;stroke-width:1.05833"
         x="131.37251"
         y="122.22884"
         id="tspan516" /></text><text
       xml:space="preserve"
       style="font-size:4.36403px;line-height:1.2124;font-family:'Acmeon Text Font';-inkscape-font-specification:'Acmeon Text Font';fill:#000000;fill-opacity:1;stroke-width:1.05833;stroke-linecap:square;paint-order:stroke fill markers"
       x="0.13921306"
       y="58.737438"
       id="text492"><tspan
         sodipodi:role="line"
         style="font-style:normal;font-variant:normal;font-weight:normal;font-stretch:normal;font-size:4.36403px;line-height:1.2124;font-family:'Acmeon Text Font';-inkscape-font-specification:'Acmeon Text Font';fill:#000000;fill-opacity:1;stroke-width:1.05833"
         x="0.13921306"
         y="58.737438"
         id="tspan508"><tspan
   style="font-weight:bold"
   id="tspan515">Webcellar</tspan> is an open source Office Add-In for</tspan><tspan
         sodipodi:role="line"
         style="font-style:normal;font-variant:normal;font-weight:normal;font-stretch:normal;font-size:4.36403px;line-height:1.2124;font-family:'Acmeon Text Font';-inkscape-font-specification:'Acmeon Text Font';fill:#000000;fill-opacity:1;stroke-width:1.05833"
         x="0.13921306"
         y="64.028389"
         id="tspan509">Microsoft Excel that lets developers easily enhance </tspan><tspan
         sodipodi:role="line"
         style="font-style:normal;font-variant:normal;font-weight:normal;font-stretch:normal;font-size:4.36403px;line-height:1.2124;font-family:'Acmeon Text Font';-inkscape-font-specification:'Acmeon Text Font';fill:#000000;fill-opacity:1;stroke-width:1.05833"
         x="0.13921306"
         y="69.319336"
         id="tspan510">spreadsheets with custom JavaScript and TypeScript. </tspan><tspan
         sodipodi:role="line"
         style="font-style:normal;font-variant:normal;font-weight:normal;font-stretch:normal;font-size:4.36403px;line-height:1.2124;font-family:'Acmeon Text Font';-inkscape-font-specification:'Acmeon Text Font';fill:#000000;fill-opacity:1;stroke-width:1.05833"
         x="0.13921306"
         y="74.610291"
         id="tspan677" /><tspan
         sodipodi:role="line"
         style="font-style:normal;font-variant:normal;font-weight:normal;font-stretch:normal;font-size:4.36403px;line-height:1.2124;font-family:'Acmeon Text Font';-inkscape-font-specification:'Acmeon Text Font';fill:#000000;fill-opacity:1;stroke-width:1.05833"
         x="0.13921306"
         y="79.901237"
         id="tspan679">In practice, this simplifies the development of many</tspan><tspan
         sodipodi:role="line"
         style="font-style:normal;font-variant:normal;font-weight:normal;font-stretch:normal;font-size:4.36403px;line-height:1.2124;font-family:'Acmeon Text Font';-inkscape-font-specification:'Acmeon Text Font';fill:#000000;fill-opacity:1;stroke-width:1.05833"
         x="0.13921306"
         y="85.192184"
         id="tspan684">advanced Excel applications, such as forecasting, risk, </tspan><tspan
         sodipodi:role="line"
         style="font-style:normal;font-variant:normal;font-weight:normal;font-stretch:normal;font-size:4.36403px;line-height:1.2124;font-family:'Acmeon Text Font';-inkscape-font-specification:'Acmeon Text Font';fill:#000000;fill-opacity:1;stroke-width:1.05833"
         x="0.13921306"
         y="90.483139"
         id="tspan701">simulation, decision and artificial intelligence (AI) models.</tspan><tspan
         sodipodi:role="line"
         style="font-style:normal;font-variant:normal;font-weight:normal;font-stretch:normal;font-size:4.36403px;line-height:1.2124;font-family:'Acmeon Text Font';-inkscape-font-specification:'Acmeon Text Font';fill:#000000;fill-opacity:1;stroke-width:1.05833"
         x="0.13921306"
         y="95.774086"
         id="tspan6" /><tspan
         sodipodi:role="line"
         style="font-style:normal;font-variant:normal;font-weight:normal;font-stretch:normal;font-size:4.36403px;line-height:1.2124;font-family:'Acmeon Text Font';-inkscape-font-specification:'Acmeon Text Font';fill:#000000;fill-opacity:1;stroke-width:1.05833"
         x="0.13921306"
         y="101.06503"
         id="tspan7">As an end result, developers can deliver meaningful </tspan><tspan
         sodipodi:role="line"
         style="font-style:normal;font-variant:normal;font-weight:normal;font-stretch:normal;font-size:4.36403px;line-height:1.2124;font-family:'Acmeon Text Font';-inkscape-font-specification:'Acmeon Text Font';fill:#000000;fill-opacity:1;stroke-width:1.05833"
         x="0.13921306"
         y="106.35599"
         id="tspan8">outcomes faster while preserving a familiar user </tspan><tspan
         sodipodi:role="line"
         style="font-style:normal;font-variant:normal;font-weight:normal;font-stretch:normal;font-size:4.36403px;line-height:1.2124;font-family:'Acmeon Text Font';-inkscape-font-specification:'Acmeon Text Font';fill:#000000;fill-opacity:1;stroke-width:1.05833"
         x="0.13921306"
         y="111.64693"
         id="tspan9">interface and experience.</tspan></text><rect
       style="fill:#00bc65;fill-opacity:0.203922;stroke-width:1.05833;stroke-linecap:square;paint-order:stroke fill markers"
       id="rect694"
       width="13.758333"
       height="13.758333"
       x="113.24159"
       y="97.895882" /><g
       id="g695"
       transform="matrix(1.4444445,0,0,1.4444445,81.772857,-400.09798)"
       style="stroke-width:0.692308"><rect
         style="fill:#000000;fill-opacity:0;stroke-width:0.73269;stroke-linecap:square;paint-order:stroke fill markers"
         id="rect695"
         width="6.3499999"
         height="6.3499999"
         x="23.373341"
         y="346.35245" /><path
         d="m 24.374278,347.10015 2.174063,-0.48313 2.174055,0.48313 c 0.121073,0.0269 0.207195,0.13427 0.207195,0.25828 v 2.64232 c 0,0.53078 -0.265271,1.02645 -0.706914,1.32088 l -1.674336,1.11623 -1.674336,-1.11623 c -0.44164,-0.29443 -0.706914,-0.7901 -0.706914,-1.32088 v -2.64232 c 0,-0.12401 0.08613,-0.23138 0.207187,-0.25828 z"
         id="path695"
         style="fill:#00bc65;fill-opacity:1;stroke-width:0.183173" /></g></g></svg>
